<mxfile host="app.diagrams.net" modified="2021-03-01T02:39:39.753Z" agent="5.0 (Windows)" etag="YvCzx-KDdjOSx4PvuMh-" version="14.4.2" type="github">
  <diagram id="qZjwHc3WSDLpgnZpSFku" name="第 1 页">
    <mxGraphModel dx="1422" dy="733" grid="1" gridSize="10" guides="1" tooltips="1" connect="1" arrows="1" fold="1" page="1" pageScale="1" pageWidth="1920" pageHeight="1200" math="0" shadow="0">
      <root>
        <mxCell id="0" />
        <mxCell id="1" parent="0" />
        <mxCell id="VQN_di5XNYVQZKUm2q7j-3" style="edgeStyle=orthogonalEdgeStyle;rounded=0;orthogonalLoop=1;jettySize=auto;html=1;entryX=0;entryY=0.5;entryDx=0;entryDy=0;" edge="1" parent="1" source="VQN_di5XNYVQZKUm2q7j-1" target="VQN_di5XNYVQZKUm2q7j-2">
          <mxGeometry relative="1" as="geometry" />
        </mxCell>
        <mxCell id="VQN_di5XNYVQZKUm2q7j-4" value="点击一键挪库按钮" style="edgeLabel;html=1;align=center;verticalAlign=middle;resizable=0;points=[];" vertex="1" connectable="0" parent="VQN_di5XNYVQZKUm2q7j-3">
          <mxGeometry x="-0.175" y="1" relative="1" as="geometry">
            <mxPoint as="offset" />
          </mxGeometry>
        </mxCell>
        <mxCell id="VQN_di5XNYVQZKUm2q7j-1" value="开始" style="ellipse;whiteSpace=wrap;html=1;aspect=fixed;" vertex="1" parent="1">
          <mxGeometry x="90" y="240" width="80" height="80" as="geometry" />
        </mxCell>
        <mxCell id="VQN_di5XNYVQZKUm2q7j-6" style="edgeStyle=orthogonalEdgeStyle;rounded=0;orthogonalLoop=1;jettySize=auto;html=1;entryX=0;entryY=0.5;entryDx=0;entryDy=0;" edge="1" parent="1" source="VQN_di5XNYVQZKUm2q7j-2">
          <mxGeometry relative="1" as="geometry">
            <mxPoint x="560" y="280" as="targetPoint" />
          </mxGeometry>
        </mxCell>
        <mxCell id="VQN_di5XNYVQZKUm2q7j-16" style="edgeStyle=orthogonalEdgeStyle;rounded=0;orthogonalLoop=1;jettySize=auto;html=1;" edge="1" parent="1" source="VQN_di5XNYVQZKUm2q7j-2" target="VQN_di5XNYVQZKUm2q7j-15">
          <mxGeometry relative="1" as="geometry" />
        </mxCell>
        <mxCell id="VQN_di5XNYVQZKUm2q7j-2" value="查询所有处于【邮件通知用户进入公示期】的案件list" style="rounded=0;whiteSpace=wrap;html=1;" vertex="1" parent="1">
          <mxGeometry x="330" y="250" width="120" height="60" as="geometry" />
        </mxCell>
        <mxCell id="VQN_di5XNYVQZKUm2q7j-10" style="edgeStyle=orthogonalEdgeStyle;rounded=0;orthogonalLoop=1;jettySize=auto;html=1;entryX=0.5;entryY=0;entryDx=0;entryDy=0;entryPerimeter=0;" edge="1" parent="1" source="VQN_di5XNYVQZKUm2q7j-7" target="VQN_di5XNYVQZKUm2q7j-9">
          <mxGeometry relative="1" as="geometry" />
        </mxCell>
        <mxCell id="VQN_di5XNYVQZKUm2q7j-12" style="edgeStyle=orthogonalEdgeStyle;rounded=0;orthogonalLoop=1;jettySize=auto;html=1;" edge="1" parent="1" source="VQN_di5XNYVQZKUm2q7j-7">
          <mxGeometry relative="1" as="geometry">
            <mxPoint x="790" y="280" as="targetPoint" />
          </mxGeometry>
        </mxCell>
        <mxCell id="VQN_di5XNYVQZKUm2q7j-28" style="edgeStyle=orthogonalEdgeStyle;rounded=0;orthogonalLoop=1;jettySize=auto;html=1;entryX=0.513;entryY=0.95;entryDx=0;entryDy=0;entryPerimeter=0;" edge="1" parent="1" source="VQN_di5XNYVQZKUm2q7j-7" target="VQN_di5XNYVQZKUm2q7j-27">
          <mxGeometry relative="1" as="geometry" />
        </mxCell>
        <mxCell id="VQN_di5XNYVQZKUm2q7j-7" value="插入数据到mongo，第一阶段、第二阶段的状态都为待处理" style="rounded=0;whiteSpace=wrap;html=1;" vertex="1" parent="1">
          <mxGeometry x="560" y="250" width="120" height="60" as="geometry" />
        </mxCell>
        <mxCell id="VQN_di5XNYVQZKUm2q7j-14" style="edgeStyle=orthogonalEdgeStyle;rounded=0;orthogonalLoop=1;jettySize=auto;html=1;entryX=0;entryY=0.5;entryDx=0;entryDy=0;" edge="1" parent="1" source="VQN_di5XNYVQZKUm2q7j-9" target="VQN_di5XNYVQZKUm2q7j-13">
          <mxGeometry relative="1" as="geometry">
            <Array as="points">
              <mxPoint x="350" y="460" />
              <mxPoint x="350" y="600" />
            </Array>
          </mxGeometry>
        </mxCell>
        <mxCell id="VQN_di5XNYVQZKUm2q7j-26" style="edgeStyle=orthogonalEdgeStyle;rounded=0;orthogonalLoop=1;jettySize=auto;html=1;entryX=0;entryY=0.5;entryDx=0;entryDy=0;" edge="1" parent="1" source="VQN_di5XNYVQZKUm2q7j-9" target="VQN_di5XNYVQZKUm2q7j-21">
          <mxGeometry relative="1" as="geometry">
            <Array as="points">
              <mxPoint x="350" y="460" />
              <mxPoint x="350" y="710" />
            </Array>
          </mxGeometry>
        </mxCell>
        <mxCell id="VQN_di5XNYVQZKUm2q7j-9" value="mongo" style="shape=cylinder3;whiteSpace=wrap;html=1;boundedLbl=1;backgroundOutline=1;size=15;" vertex="1" parent="1">
          <mxGeometry x="590" y="420" width="60" height="80" as="geometry" />
        </mxCell>
        <mxCell id="VQN_di5XNYVQZKUm2q7j-11" value="接口返回成功" style="ellipse;whiteSpace=wrap;html=1;aspect=fixed;" vertex="1" parent="1">
          <mxGeometry x="1000" y="240" width="80" height="80" as="geometry" />
        </mxCell>
        <mxCell id="VQN_di5XNYVQZKUm2q7j-18" style="edgeStyle=orthogonalEdgeStyle;rounded=0;orthogonalLoop=1;jettySize=auto;html=1;" edge="1" parent="1" source="VQN_di5XNYVQZKUm2q7j-13" target="VQN_di5XNYVQZKUm2q7j-17">
          <mxGeometry relative="1" as="geometry" />
        </mxCell>
        <mxCell id="VQN_di5XNYVQZKUm2q7j-13" value="定时任务查询mongo第一阶段为待处理的数据" style="rounded=0;whiteSpace=wrap;html=1;" vertex="1" parent="1">
          <mxGeometry x="400" y="570" width="120" height="60" as="geometry" />
        </mxCell>
        <mxCell id="VQN_di5XNYVQZKUm2q7j-15" value="画外音：案件case_code和info_version" style="text;html=1;align=center;verticalAlign=middle;resizable=0;points=[];autosize=1;" vertex="1" parent="1">
          <mxGeometry x="275" y="360" width="230" height="20" as="geometry" />
        </mxCell>
        <mxCell id="VQN_di5XNYVQZKUm2q7j-20" style="edgeStyle=orthogonalEdgeStyle;rounded=0;orthogonalLoop=1;jettySize=auto;html=1;" edge="1" parent="1" source="VQN_di5XNYVQZKUm2q7j-17" target="VQN_di5XNYVQZKUm2q7j-19">
          <mxGeometry relative="1" as="geometry" />
        </mxCell>
        <mxCell id="VQN_di5XNYVQZKUm2q7j-17" value="执行流程流转" style="rounded=0;whiteSpace=wrap;html=1;" vertex="1" parent="1">
          <mxGeometry x="590" y="570" width="120" height="60" as="geometry" />
        </mxCell>
        <mxCell id="VQN_di5XNYVQZKUm2q7j-19" value="修改mongo第一阶段为处理完成" style="rounded=0;whiteSpace=wrap;html=1;" vertex="1" parent="1">
          <mxGeometry x="810" y="570" width="120" height="60" as="geometry" />
        </mxCell>
        <mxCell id="VQN_di5XNYVQZKUm2q7j-23" style="edgeStyle=orthogonalEdgeStyle;rounded=0;orthogonalLoop=1;jettySize=auto;html=1;entryX=0;entryY=0.5;entryDx=0;entryDy=0;" edge="1" parent="1" source="VQN_di5XNYVQZKUm2q7j-21" target="VQN_di5XNYVQZKUm2q7j-22">
          <mxGeometry relative="1" as="geometry" />
        </mxCell>
        <mxCell id="VQN_di5XNYVQZKUm2q7j-21" value="定时任务查询mongo第一阶段为成功且第二阶段为待处理的" style="rounded=0;whiteSpace=wrap;html=1;" vertex="1" parent="1">
          <mxGeometry x="400" y="680" width="120" height="60" as="geometry" />
        </mxCell>
        <mxCell id="VQN_di5XNYVQZKUm2q7j-25" style="edgeStyle=orthogonalEdgeStyle;rounded=0;orthogonalLoop=1;jettySize=auto;html=1;entryX=0;entryY=0.5;entryDx=0;entryDy=0;" edge="1" parent="1" source="VQN_di5XNYVQZKUm2q7j-22" target="VQN_di5XNYVQZKUm2q7j-24">
          <mxGeometry relative="1" as="geometry" />
        </mxCell>
        <mxCell id="VQN_di5XNYVQZKUm2q7j-22" value="执行流程流转" style="rounded=0;whiteSpace=wrap;html=1;" vertex="1" parent="1">
          <mxGeometry x="590" y="680" width="120" height="60" as="geometry" />
        </mxCell>
        <mxCell id="VQN_di5XNYVQZKUm2q7j-24" value="修改mongo第二阶段为处理完成" style="rounded=0;whiteSpace=wrap;html=1;" vertex="1" parent="1">
          <mxGeometry x="810" y="680" width="120" height="60" as="geometry" />
        </mxCell>
        <mxCell id="VQN_di5XNYVQZKUm2q7j-27" value="画外音：是否存在未处理完成的数据" style="text;html=1;align=center;verticalAlign=middle;resizable=0;points=[];autosize=1;" vertex="1" parent="1">
          <mxGeometry x="515" y="150" width="210" height="20" as="geometry" />
        </mxCell>
        <mxCell id="VQN_di5XNYVQZKUm2q7j-30" style="edgeStyle=orthogonalEdgeStyle;rounded=0;orthogonalLoop=1;jettySize=auto;html=1;entryX=0;entryY=0.5;entryDx=0;entryDy=0;" edge="1" parent="1" source="VQN_di5XNYVQZKUm2q7j-29" target="VQN_di5XNYVQZKUm2q7j-11">
          <mxGeometry relative="1" as="geometry" />
        </mxCell>
        <mxCell id="VQN_di5XNYVQZKUm2q7j-29" value="每月限制接口次数+1" style="whiteSpace=wrap;html=1;" vertex="1" parent="1">
          <mxGeometry x="790" y="250" width="120" height="60" as="geometry" />
        </mxCell>
      </root>
    </mxGraphModel>
  </diagram>
</mxfile>
